<svg width="66" height="132" viewBox="0 0 66 132" fill="none" xmlns="http://www.w3.org/2000/svg">
<path fill-rule="evenodd" clip-rule="evenodd" d="M49.3333 0H16.6667C7.46192 0 0 7.46192 0 16.6667V115.333C0 124.538 7.46192 132 16.6667 132H49.3333C58.5381 132 66 124.538 66 115.333V16.6667C66 7.46192 58.5381 0 49.3333 0ZM10 81.7129C13 81.2685 19.8667 80.0462 23.3334 78.7129C25.4998 77.8797 27.4997 77.213 29.1246 76.6714L29.125 76.6712C30.75 76.1296 32 75.7129 32.6667 75.3796C32.5774 75.201 32.4722 74.9959 32.3558 74.769L32.3555 74.7684C31.1678 72.4531 28.8156 67.8675 30.3334 66.0462C31.7608 64.3333 33.1882 64.5765 35.0345 64.891L35.0349 64.891C35.3442 64.9437 35.6652 64.9984 36 65.0462C38.3334 65.3796 41 66.7129 40 69.7129C39.2 72.1129 39 73.824 39 74.3796C41.3334 73.7129 46.5334 73.3129 48.6667 77.0462C48.6667 78.1861 48.5108 78.2346 48.0923 78.3646C47.8989 78.4247 47.6494 78.5022 47.3334 78.7129C47.092 78.8738 46.4817 79.1124 45.7087 79.4146C43.2789 80.3644 39.2414 81.9427 40 83.7129C40.5164 84.4875 41.5328 85.4121 42.5651 86.3511C44.1981 87.8367 45.8709 89.3584 45.6667 90.3796C45.4765 91.3305 43.0078 92.2813 40.8605 93.1084C39.2441 93.731 37.8098 94.2834 37.6667 94.7129C37.3334 95.7129 35.3334 104.38 36 104.713C36.0958 104.761 36.4528 104.871 36.995 105.037L36.9952 105.037C40.2286 106.031 50.0479 109.05 50.3334 113.046C50.3334 116.046 42.3334 118.713 40 119.38C43.3334 116.046 44 113.713 43 113.046C42.9033 112.982 42.7786 112.896 42.6297 112.793L42.6293 112.792C41.2383 111.83 37.742 109.412 35.3334 109.713C35.0971 110.107 34.8237 110.947 34.4779 112.009C33.3599 115.445 31.4855 121.204 27.6667 121.713C22.6667 122.38 15.6667 114.046 15.3334 113.046C15 112.046 13.6667 107.713 20.3334 105.713C25.6667 104.113 30.3334 103.935 32 104.046C32.2222 102.713 32.6667 99.4462 32.6667 97.0462C32.2261 97.0462 31.8287 97.0391 31.4427 97.0321L31.4418 97.0321C29.1999 96.9915 27.3439 96.9579 19.6667 98.3796C17 98.3796 16 95.3796 17.3334 94.0462C18.6667 92.7129 32 83.0462 33.3334 82.7129C33.3719 82.5974 33.4104 82.4862 33.4474 82.3796C33.7304 81.5633 33.923 81.0077 33.3334 80.7129C33.0908 80.5916 31.3924 81.1763 29.0887 81.9692C25.0602 83.3559 19.181 85.3796 16 85.3796C12 85.3796 10.3334 82.9351 10 81.7129ZM30.3334 108.713C29.8889 110.268 28.5334 113.646 26.6667 114.713C25 115.713 19.3334 114.713 18.6667 113.046C18 111.38 19 108.713 24 108.713H30.3334ZM32 69.7129C32 70.7796 33.3334 73.2685 34 74.3796C34.6667 74.7129 36 75.1796 36 74.3796C36 73.3795 35.3334 71.3796 34.6667 69.7129C34 68.0462 32 68.3796 32 69.7129ZM37.6667 86.7129C37.4445 87.9351 37.1334 90.3796 37.6667 90.3796C38.3334 90.3796 40.0001 89.7129 40.0001 89.0462C40.0001 88.3796 38.6667 86.0462 37.6667 86.7129ZM21.6667 94.0462C24.0667 91.1129 30 87.9351 32.6667 86.7129C32.8889 87.7129 33.2 90.1129 32.6667 91.7129C30 93.0462 23.3334 94.7129 21.6667 94.0462ZM57.3333 10.5503C52.2667 8.95033 49 11.217 48 12.5503H45.3333C47 12.5503 49.6666 16.8836 50 17.8836C50.3333 18.8836 52 20.8836 54 19.8836C56 18.8836 54 14.217 51 12.5503C53.3333 12.5503 54 12.5503 56.3333 13.5503C57.316 13.9715 58.0622 14.5109 58.6964 14.9693C59.5681 15.5994 60.2282 16.0766 61 15.8836C62.3333 15.5503 63.6666 12.5503 57.3333 10.5503ZM20.956 12.217C21.956 13.1059 26.0365 13.2847 35.2893 12.217C43.956 11.217 50.6227 18.217 35.2893 21.8837C33.2894 21.8837 19.2893 31.5504 18.6227 42.8837C18.2893 48.5504 22.6227 50.8837 27.6227 50.5504C29.4161 50.4308 31.381 49.8824 33.3945 49.3205C36.9945 48.3157 40.7494 47.2677 43.956 48.5504C48.956 50.5504 50.2894 54.8837 43.956 56.2171C37.6227 57.5504 25.2894 58.8837 19.2894 53.217C13.2894 47.5504 16.2894 37.8837 21.956 29.8837C23.8449 27.5504 28.2894 22.3503 30.9561 20.217C30.7528 20.1408 30.5322 20.0607 30.2972 19.9754C27.4489 18.9417 22.4956 17.144 20.956 12.217Z" fill="#2E2828"/>
</svg>
