<svg width="66" height="132" viewBox="0 0 66 132" fill="none" xmlns="http://www.w3.org/2000/svg">
<path d="M16.6667 0H49.3333C58.5381 0 66 7.46192 66 16.6667V115.333C66 124.538 58.5381 132 49.3333 132H16.6667C7.46192 132 0 124.538 0 115.333V16.6667C0 7.46192 7.46192 0 16.6667 0Z" fill="#2E2828"/>
<path fill-rule="evenodd" clip-rule="evenodd" d="M23.3334 78.713C19.8667 80.0463 13 81.2685 10 81.713C10.3334 82.9352 12 85.3796 16 85.3796C19.181 85.3796 25.0602 83.3559 29.0887 81.9693C31.3924 81.1763 33.0908 80.5917 33.3334 80.7129C33.923 81.0078 33.7304 81.5633 33.4474 82.3796C33.4104 82.4863 33.3719 82.5974 33.3334 82.7129C32 83.0463 18.6667 92.7129 17.3334 94.0463C16 95.3796 17 98.3796 19.6667 98.3796C27.3439 96.9579 29.1999 96.9915 31.4418 97.0321C31.8281 97.0391 32.2258 97.0463 32.6667 97.0463C32.6667 99.4463 32.2222 102.713 32 104.046C30.3334 103.935 25.6667 104.113 20.3334 105.713C13.6667 107.713 15 112.046 15.3334 113.046C15.6667 114.046 22.6667 122.38 27.6667 121.713C31.4855 121.204 33.3599 115.445 34.4779 112.009C34.8237 110.947 35.0971 110.107 35.3334 109.713C37.742 109.412 41.2383 111.83 42.6293 112.792L42.6297 112.793C42.7786 112.896 42.9033 112.982 43 113.046C44 113.713 43.3334 116.046 40 119.38C42.3334 118.713 50.3334 116.046 50.3334 113.046C50.0479 109.05 40.2286 106.031 36.9952 105.037C36.4528 104.871 36.0958 104.761 36 104.713C35.3334 104.38 37.3334 95.7129 37.6667 94.7129C37.8098 94.2835 39.2441 93.7311 40.8604 93.1085L40.8605 93.1085C43.0078 92.2814 45.4765 91.3305 45.6667 90.3796C45.8709 89.3584 44.1981 87.8367 42.5651 86.3512C41.5328 85.4121 40.5164 84.4875 40 83.7129C39.2414 81.9428 43.2789 80.3645 45.7087 79.4146C46.4817 79.1124 47.092 78.8739 47.3334 78.713C47.6494 78.5022 47.8989 78.4247 48.0923 78.3646C48.5108 78.2346 48.6667 78.1862 48.6667 77.0463C46.5334 73.3129 41.3334 73.7129 39 74.3796C39 73.824 39.2 72.1129 40 69.7129C41 66.7129 38.3334 65.3796 36 65.0463C35.6651 64.9984 35.344 64.9437 35.0345 64.891L35.0345 64.891C33.1882 64.5765 31.7608 64.3333 30.3334 66.0463C28.8156 67.8676 31.1678 72.4531 32.3555 74.7684L32.3558 74.769C32.4722 74.996 32.5774 75.2011 32.6667 75.3796C32 75.713 30.75 76.1296 29.125 76.6713C27.5 77.213 25.5 77.8796 23.3334 78.713ZM26.6667 114.713C28.5334 113.646 29.8889 110.269 30.3334 108.713H24C19 108.713 18 111.38 18.6667 113.046C19.3334 114.713 25 115.713 26.6667 114.713ZM34 74.3796C33.3334 73.2685 32 70.7796 32 69.7129C32 68.3796 34 68.0463 34.6667 69.7129C35.3334 71.3796 36 73.3796 36 74.3796C36 75.1796 34.6667 74.7129 34 74.3796ZM37.6667 90.3796C37.1334 90.3796 37.4445 87.9352 37.6667 86.7129C38.6667 86.0463 40.0001 88.3796 40.0001 89.0463C40.0001 89.7129 38.3334 90.3796 37.6667 90.3796ZM32.6667 86.7129C30 87.9352 24.0667 91.1129 21.6667 94.0463C23.3334 94.7129 30 93.0463 32.6667 91.7129C33.2 90.1129 32.8889 87.7129 32.6667 86.7129Z" fill="white"/>
<path d="M57.3333 10.5504C52.2667 8.95036 49 11.217 48 12.5504H45.3333C47 12.5504 49.6667 16.8837 50 17.8837C50.3333 18.8837 52 20.8837 54 19.8837C56 18.8837 54 14.217 51 12.5504C53.3333 12.5504 54 12.5504 56.3333 13.5503C58.6667 14.5503 59.6667 16.217 61 15.8837C62.3333 15.5503 63.6667 12.5504 57.3333 10.5504Z" fill="white"/>
<path d="M35.2893 12.2171C26.0365 13.2847 21.956 13.106 20.956 12.2171C22.6226 17.5504 28.2894 19.217 30.9561 20.217C28.2894 22.3504 23.8449 27.5504 21.956 29.8837C16.2894 37.8837 13.2894 47.5504 19.2894 53.2171C25.2894 58.8837 37.6227 57.5504 43.956 56.2171C50.2894 54.8838 48.956 50.5504 43.956 48.5504C38.956 46.5504 32.6227 50.2171 27.6227 50.5504C22.6227 50.8837 18.2893 48.5504 18.6227 42.8837C19.2893 31.5504 33.2894 21.8837 35.2893 21.8837C50.6227 18.217 43.956 11.2171 35.2893 12.2171Z" fill="white"/>
</svg>
