<svg width="16" height="16" viewBox="0 0 16 16" fill="none" xmlns="http://www.w3.org/2000/svg">
<g clip-path="url(#clip0_519_2)">
<path d="M15.1879 0.899041C15.1758 0.869781 15.1553 0.844761 15.129 0.827134C15.1027 0.809507 15.0717 0.800061 15.04 0.799988H11.8001C11.7577 0.799988 11.717 0.816845 11.687 0.846851C11.657 0.876857 11.6401 0.917553 11.6401 0.959988C11.6401 1.00242 11.657 1.04312 11.687 1.07312C11.717 1.10313 11.7577 1.11999 11.8001 1.11999L14.6538 1.11998L7.88696 7.88684C7.87205 7.90169 7.86021 7.91933 7.85213 7.93876C7.84404 7.95818 7.83987 7.97901 7.83984 8.00005C7.83982 8.0211 7.84395 8.04194 7.85199 8.06138C7.86003 8.08082 7.87183 8.09849 7.8867 8.11337C7.90158 8.12825 7.91925 8.14005 7.93869 8.14809C7.95814 8.15613 7.97898 8.16026 8.00002 8.16024C8.02106 8.16021 8.04189 8.15604 8.06132 8.14796C8.08075 8.13987 8.09839 8.12803 8.11323 8.11312L14.8801 1.34626V4.19999C14.8801 4.24242 14.897 4.28312 14.927 4.31312C14.957 4.34313 14.9977 4.35999 15.0401 4.35999C15.0825 4.35999 15.1232 4.34313 15.1532 4.31312C15.1832 4.28312 15.2001 4.24242 15.2001 4.19999V0.959988C15.2001 0.939069 15.1959 0.918363 15.1879 0.899041Z" fill="black" stroke="black" stroke-linejoin="round"/>
<path d="M15.04 6.95999C14.9976 6.95999 14.9569 6.97685 14.9269 7.00686C14.8969 7.03686 14.8801 7.07756 14.8801 7.11999L14.88 14.08C14.88 14.2922 14.7957 14.4956 14.6457 14.6457C14.4957 14.7957 14.2922 14.88 14.08 14.88H1.92005C1.70788 14.88 1.50441 14.7957 1.35438 14.6457C1.20435 14.4956 1.12006 14.2922 1.12005 14.08V1.91999C1.12006 1.70782 1.20435 1.50435 1.35438 1.35432C1.5044 1.20429 1.70788 1.12 1.92005 1.11998H8.88005C8.90116 1.12015 8.9221 1.11613 8.94166 1.10816C8.96121 1.10019 8.979 1.08844 8.99399 1.07356C9.00897 1.05869 9.02087 1.041 9.02899 1.0215C9.03711 1.00201 9.04129 0.981104 9.04129 0.959988C9.04129 0.938872 9.03711 0.917965 9.02899 0.898472C9.02087 0.87898 9.00897 0.861287 8.99399 0.846413C8.979 0.83154 8.96121 0.819781 8.94166 0.811814C8.9221 0.803847 8.90116 0.799829 8.88005 0.799993H1.92005C1.62301 0.800017 1.33815 0.918025 1.12812 1.12806C0.918081 1.3381 0.800073 1.62296 0.800049 1.91999V14.08C0.800076 14.377 0.918084 14.6619 1.12812 14.8719C1.33815 15.082 1.62302 15.2 1.92005 15.2H14.08C14.3771 15.2 14.6619 15.082 14.872 14.8719C15.082 14.6619 15.2 14.377 15.2 14.08V7.11999C15.2 7.07756 15.1832 7.03686 15.1532 7.00686C15.1232 6.97685 15.0825 6.95999 15.04 6.95999Z" fill="black" stroke="black" stroke-linejoin="round"/>
</g>
<defs>
<clipPath id="clip0_519_2">
<rect width="16" height="16" fill="white"/>
</clipPath>
</defs>
</svg>
